<?xml version="1.0" encoding="utf-8"?>
<!-- Generator: Adobe Illustrator 15.1.0, SVG Export Plug-In . SVG Version: 6.00 Build 0)  -->
<!DOCTYPE svg PUBLIC "-//W3C//DTD SVG 1.1//EN" "http://www.w3.org/Graphics/SVG/1.1/DTD/svg11.dtd">
<svg version="1.1" id="Camada_1" xmlns="http://www.w3.org/2000/svg" xmlns:xlink="http://www.w3.org/1999/xlink" x="0px" y="0px"
	 width="689.133px" height="200px" viewBox="0 0 689.133 200" enable-background="new 0 0 689.133 200" xml:space="preserve">
<g>
	<path fill="#FFFFFF" d="M69.506,142.452c0-28.668,22.939-50.229,52.065-50.229c29.362,0,51.833,21.561,51.833,50.229
		c0,28.674-22.472,50.233-51.833,50.233C92.446,192.686,69.506,171.126,69.506,142.452z M149.553,142.452
		c0-17.656-10.782-30.044-27.982-30.044c-17.204,0-28.209,12.388-28.209,30.044c0,17.664,11.005,30.279,28.209,30.279
		C138.771,172.731,149.553,160.116,149.553,142.452z"/>
	<path fill="#FFFFFF" d="M189.46,142.224c0-29.125,20.188-50,44.727-50c16.975,0,27.067,7.801,33.487,18.811V25.022h23.396v165.6
		h-23.396l0.687-17.433c-5.959,11.695-17.659,19.496-33.711,19.496C209.648,192.686,189.46,171.355,189.46,142.224z M268.59,142.224
		c0-17.428-11.007-29.357-27.976-29.357c-16.746,0-27.301,11.93-27.301,29.357c0,18.122,10.555,30.051,27.301,30.051
		C257.583,172.274,268.59,160.346,268.59,142.224z"/>
	<path fill="#FFFFFF" d="M315.151,25.022h23.169v86.237c6.187-11.925,17.66-19.035,32.107-19.035
		c21.334,0,36.012,15.136,36.012,41.288v57.11h-23.167v-55.28c0-13.759-6.42-21.789-19.95-21.789
		c-15.141,0-25.001,9.174-25.001,24.773v52.296h-23.169V25.022z"/>
	<path fill="#FFFFFF" d="M476.608,173.189c12.616,0,21.789-5.048,27.294-10.323l13.53,14.221
		c-8.942,8.95-21.328,15.599-40.595,15.599c-33.03,0-54.36-21.33-54.36-50.233c0-28.668,22.479-50.229,51.376-50.229
		c32.803,0,51.383,24.313,49.774,58.029h-77.525C448.856,164.245,458.946,173.189,476.608,173.189z M500.234,134.197
		c-2.067-13.073-10.094-22.709-26.154-22.709c-14.903,0-25.224,8.26-27.978,22.709H500.234z"/>
	<path fill="#FFFFFF" d="M539.78,94.288h23.165l-0.456,17.891c5.959-12.615,18.119-19.955,32.57-19.955
		c21.328,0,36.008,15.136,36.008,41.283v57.115h-23.171v-55.28c0-13.762-6.415-21.789-19.952-21.789
		c-15.138,0-24.999,9.174-24.999,24.771v52.298H539.78V94.288z"/>
</g>
<path fill="#FFFFFF" d="M609.7,24.172c-6.004-9.21-16.377-15.312-28.193-15.312c-11.69,0-21.977,5.959-28.013,15.002
	c-3.559,5.341-5.641,11.751-5.641,18.653c0,6.769,2.015,13.06,5.455,18.338c6.004,9.212,16.385,15.313,28.198,15.313
	c11.688,0,21.975-5.961,28.006-15.007c3.563-5.339,5.65-11.75,5.65-18.645C615.163,35.744,613.142,29.455,609.7,24.172z
	 M585.99,59.441c-0.067,0.019-0.135,0.035-0.202,0.054c-0.542,0.136-1.095,0.246-1.655,0.33c-0.148,0.021-0.296,0.049-0.446,0.068
	c-0.282,0.035-0.565,0.061-0.852,0.082c-0.229,0.016-0.459,0.025-0.688,0.035c-0.214,0.007-0.423,0.033-0.639,0.033
	c-0.219,0-0.431-0.025-0.646-0.033c-0.229-0.009-0.459-0.019-0.686-0.035c-0.287-0.021-0.571-0.049-0.854-0.084
	c-0.164-0.019-0.324-0.049-0.487-0.073c-0.551-0.086-1.092-0.194-1.625-0.33c-0.079-0.019-0.159-0.04-0.237-0.061
	c-7.479-2.001-12.992-8.803-12.992-16.912c0-9.68,7.848-17.528,17.527-17.528s17.527,7.848,17.527,17.528
	C599.035,50.643,593.494,57.458,585.99,59.441z"/>
<g>
	<path fill="#FFFFFF" d="M405.57,42.517c0,2.535-0.55,4.941-1.521,7.115l13.566,8.903c2.589-4.765,4.081-10.216,4.081-16.016
		c0-6.773-2.021-13.064-5.459-18.345c-5.492-8.421-14.64-14.228-25.2-15.161v16.25C399.287,26.686,405.57,33.859,405.57,42.517z"/>
	<path fill="#FFFFFF" d="M400.714,54.607c-2.211,2.31-5.048,4.017-8.24,4.85c-0.029,0.007-0.059,0.014-0.088,0.021
		c-0.63,0.162-1.271,0.288-1.926,0.379c-0.068,0.009-0.138,0.023-0.208,0.03c-0.306,0.04-0.614,0.068-0.925,0.091
		c-0.183,0.012-0.366,0.019-0.551,0.028c-0.246,0.009-0.486,0.035-0.735,0.035c-0.25,0-0.496-0.025-0.744-0.037
		c-0.184-0.007-0.367-0.014-0.55-0.028c-0.312-0.021-0.62-0.051-0.927-0.089c-0.087-0.012-0.173-0.028-0.262-0.04
		c-0.648-0.094-1.283-0.22-1.906-0.382c-0.027-0.007-0.056-0.014-0.081-0.021c-7.511-1.98-13.057-8.798-13.057-16.929
		c0-8.657,6.281-15.829,14.531-17.254V9.013c-10.434,0.922-19.501,6.59-25.011,14.85c-3.562,5.343-5.647,11.751-5.647,18.656
		c0,6.767,2.017,13.06,5.455,18.335c6.01,9.212,16.384,15.313,28.198,15.313c10.636,0,20.096-4.943,26.261-12.643L400.714,54.607z"
		/>
</g>
<g>
	<path fill="#FFFFFF" d="M468.631,49.299c-0.883-2.087-1.383-4.374-1.383-6.785c0-8.658,6.281-15.829,14.53-17.252V9.008
		c-10.438,0.922-19.502,6.595-25.007,14.855c-3.572,5.341-5.652,11.751-5.652,18.656c0,5.676,1.433,11.01,3.923,15.698
		L468.631,49.299z"/>
	<path fill="#FFFFFF" d="M512.964,24.172c-5.484-8.421-14.633-14.228-25.193-15.164v16.254c8.25,1.423,14.531,8.594,14.531,17.252
		c0,8.128-5.541,14.944-13.046,16.926c-0.067,0.019-0.136,0.035-0.204,0.054c-0.54,0.136-1.09,0.243-1.648,0.328
		c-0.151,0.023-0.3,0.051-0.452,0.07c-0.282,0.035-0.565,0.061-0.851,0.082c-0.229,0.016-0.459,0.025-0.689,0.035
		c-0.213,0.007-0.423,0.033-0.637,0.033c-0.219,0-0.432-0.025-0.649-0.033c-0.228-0.009-0.457-0.019-0.682-0.035
		c-0.287-0.021-0.573-0.049-0.857-0.084c-0.155-0.019-0.308-0.047-0.462-0.07c-0.564-0.086-1.119-0.196-1.666-0.337
		c-0.067-0.017-0.137-0.033-0.204-0.052c-3.274-0.873-6.161-2.67-8.384-5.093l-13.564,8.903
		c6.158,7.859,15.709,12.926,26.469,12.926c11.684,0,21.977-5.961,28.01-15.007c3.56-5.339,5.645-11.75,5.645-18.645
		C518.429,35.746,516.409,29.455,512.964,24.172z"/>
</g>
</svg>
